<?xml version="1.0" encoding="UTF-8" standalone="no"?>
<svg width="73px" height="73px" viewBox="0 0 73 73" version="1.1" xmlns="http://www.w3.org/2000/svg" xmlns:xlink="http://www.w3.org/1999/xlink">
    <!-- Generator: Sketch 3.8.3 (29802) - http://www.bohemiancoding.com/sketch -->
    <title>ribbon-down</title>
    <desc>Created with Sketch.</desc>
    <defs></defs>
    <g id="Page-1" stroke="none" stroke-width="1" fill="none" fill-rule="evenodd">
        <g id="Artboard-1" fill="#000000">
            <g id="ribbon-down">
                <g id="Group">
                    <path d="M57.5,30.9 L37.8,50.6 C37.5,50.9 37.2,51 36.8,51 C36.5,51 36.1,50.8 35.8,50.6 L16,30.9 C15.7,30.6 15.6,30.3 15.6,29.9 C15.6,29.6 15.8,29.2 16,28.9 L18.1,26.8 C18.4,26.5 18.7,26.4 19.1,26.4 C19.4,26.4 19.8,26.6 20.1,26.8 L36.8,43.5 L53.5,26.8 C53.8,26.5 54.1,26.4 54.5,26.4 C54.8,26.4 55.2,26.6 55.5,26.8 L57.6,28.9 C57.9,29.2 58,29.5 58,29.9 C57.9,30.3 57.7,30.7 57.5,30.9 L57.5,30.9 Z" id="Shape"></path>
                    <path d="M36.7,72.4 C16.9,72.4 0.7,56.3 0.7,36.4 C0.7,16.5 16.8,0.4 36.7,0.4 C56.5,0.4 72.7,16.5 72.7,36.4 C72.7,56.3 56.5,72.4 36.7,72.4 L36.7,72.4 Z M36.7,5.2 C19.5,5.2 5.5,19.2 5.5,36.4 C5.5,53.6 19.5,67.6 36.7,67.6 C53.9,67.6 67.9,53.6 67.9,36.4 C67.9,19.2 53.9,5.2 36.7,5.2 L36.7,5.2 Z" id="Shape"></path>
                </g>
            </g>
        </g>
    </g>
</svg>